<svg width="400" height="295" fill="none" xmlns="http://www.w3.org/2000/svg"><g clip-path="url(#clip0_9716_116495)"><path d="M45.158 173.311s11.26-16.554 28.716-25.563c16.216-8.446 34.347-6.081 46.284-15.428 22.747-17.906 25.675-32.545 25.675-32.545L100.676 37.95S92.23 62.162 74.549 70.946c-14.076 6.87-30.518 5.63-46.396 14.19C10.923 94.368 0 111.485 0 111.485l45.158 61.825z" fill="#C4C4C4"/><path d="M400 241.216l-87.387 50.338-36.149-62.5 87.387-50.45L400 241.216z" fill="url(#paint0_linear_9716_116495)"/><path d="M123.874 245.608l-95.72 15.991L0 210.586l29.73-4.955 65.99-11.149 28.154 51.126z" fill="url(#paint1_linear_9716_116495)"/><path d="M45.158 173.311s11.26-16.554 28.716-25.563c16.216-8.446 34.347-6.081 46.284-15.428 22.747-17.906 25.675-32.545 25.675-32.545L100.676 37.95S92.23 62.162 74.549 70.946c-14.076 6.87-30.518 5.63-46.396 14.19C10.923 94.368 0 111.485 0 111.485l45.158 61.825z" fill="url(#paint2_linear_9716_116495)"/><path d="M238.401 294.482c7.207 0 13.063-5.856 13.176-13.063.112-7.32-5.744-13.176-13.064-13.288l-6.644-.113c.338-1.577.789-3.04 1.126-4.504 8.897-35.248 19.032-75.113-14.752-112.951-4.842-5.405-13.175-5.856-18.581-1.013-5.405 4.842-5.856 13.175-1.013 18.581 24.437 27.365 17.229 55.856 8.896 88.964-1.802 6.869-3.604 14.076-5.068 21.283-.788 3.829.113 7.883 2.591 10.924 2.477 3.04 6.193 4.842 10.135 4.955l23.085.225h.113z" fill="url(#paint3_linear_9716_116495)"/><path d="M177.703 294.482c7.207 0 13.063-5.856 13.175-13.063.113-7.32-5.743-13.176-13.063-13.288h-2.252c19.144-38.514 35.473-85.811 13.739-118.356-4.054-6.081-12.162-7.658-18.243-3.716-6.082 4.054-7.658 12.162-3.717 18.243 12.951 19.482 4.505 56.644-25.112 110.36-2.252 4.054-2.14 9.009.112 12.951 2.365 4.054 6.645 6.418 11.262 6.531l23.874.225.225.113z" fill="url(#paint4_linear_9716_116495)"/><path d="M121.284 143.468c-1.802 0-3.604-.337-5.406-1.126-1.126-.563-29.054-13.288-45.157-48.986-4.167-9.347-10.811-15.316-19.708-17.793-6.418-1.802-11.824-1.126-11.936-1.126-7.208 1.126-13.964-3.716-15.09-10.923-1.014-7.208 3.94-13.965 11.036-15.09C49.324 46.17 80.18 50.45 94.707 82.544c4.955 10.924 11.712 20.27 20.383 27.703 6.532 5.63 11.599 8.108 11.712 8.108 6.644 2.928 9.572 10.698 6.644 17.342a13.453 13.453 0 01-12.162 7.77z" fill="url(#paint5_linear_9716_116495)"/><path d="M298.761 174.55c-6.193.45-11.937-3.379-13.738-9.573-1.915-6.982 2.139-14.301 9.121-16.216.788-.225 21.284-6.531 36.712-30.743 12.95-20.27 31.531-26.577 46.509-27.14 9.009-.338 15.653 8.334 12.95 17.005-1.689 5.293-6.531 9.121-12.049 9.234-7.32.225-17.568 3.041-25.225 15.09-21.059 32.883-50.564 41.442-51.802 41.892-.901.225-1.689.338-2.478.451z" fill="url(#paint6_linear_9716_116495)"/><path d="M275 196.396l-149.775-27.252c-11.711-2.14-19.369-13.288-17.229-25l21.509-118.356c3.491-18.919 27.027-25.9 40.202-11.712l46.734 50.226c2.703 2.815 6.87 3.603 10.361 1.914l61.261-30.518c17.23-8.558 36.937 6.194 33.446 25.113L300 179.167c-2.14 11.711-13.401 19.369-25 17.229z" fill="url(#paint7_linear_9716_116495)"/><path d="M137.05 155.405l129.054 24.437c9.009 1.69 17.567-4.279 19.256-13.288l10.924-60.473c1.689-9.009-4.279-17.568-13.289-19.257L153.941 62.387c-9.009-1.689-17.567 4.28-19.256 13.289l-10.924 60.473c-1.576 9.009 4.392 17.68 13.289 19.256z" fill="#000"/><path d="M246.622 105.631c1.238 0 2.59.112 3.828.337 10.361 1.915 17.343 11.937 15.428 22.298-1.576 8.896-9.346 15.54-18.468 15.765-1.239 0-2.59-.112-3.829-.337-5.067-.901-9.459-3.717-12.387-7.996a19.024 19.024 0 01-3.153-14.302c1.689-9.009 9.459-15.653 18.581-15.765zm-.226-10.699c-13.851.226-26.126 10.248-28.716 24.55-2.928 16.216 7.77 31.757 23.987 34.685 2.027.337 3.941.563 5.968.45 13.852-.225 26.126-10.248 28.716-24.549 2.928-16.217-7.77-31.757-23.986-34.685-2.027-.338-4.054-.45-5.969-.45zm-69.031-1.801c1.239 0 2.59.112 3.829.337 10.36 1.915 17.342 11.937 15.428 22.298-1.577 8.896-9.347 15.54-18.469 15.765-1.239 0-2.59-.112-3.829-.337-5.067-.901-9.459-3.717-12.387-7.996a19.024 19.024 0 01-3.153-14.302c1.802-9.009 9.572-15.653 18.581-15.765zm-.225-10.699c-13.852.226-26.126 10.248-28.717 24.55-2.927 16.216 7.771 31.757 23.987 34.685 2.027.337 3.941.563 5.968.45 13.852-.225 26.127-10.248 28.717-24.549 2.928-16.217-7.771-31.757-23.987-34.685-2.027-.338-3.941-.45-5.968-.45z" fill="#fff"/><path d="M251.464 27.59s24.099-5.18 37.387 13.063c13.289 18.243 19.933 39.077 48.086 39.752l61.149-23.873s-29.28-7.208-45.946-40.654C342.905-2.59 325.113-1.239 317.568 1.69L251.464 27.59z" fill="#D8D8D8"/><path d="M106.419 237.95c-.563 0-1.239-.337-1.464-.9l-16.892-33.221c-.45-.788-.113-1.802.788-2.252.789-.451 1.802-.113 2.253.788l16.891 33.221c.451.788.113 1.801-.788 2.252-.338 0-.563.112-.788.112zm-11.261 1.69c-.563 0-1.24-.338-1.464-.901l-16.892-33.221c-.45-.788-.113-1.802.788-2.252.788-.451 1.802-.113 2.252.788l16.892 33.221c.45.788.113 1.802-.788 2.252-.225.113-.563.113-.788.113zm-11.6 2.027c-.563 0-1.238-.338-1.463-.901l-16.892-33.221c-.45-.788-.113-1.802.788-2.252.788-.451 1.802-.113 2.252.788l16.892 33.221c.45.788.113 1.802-.788 2.252-.225 0-.45.113-.788.113z" fill="#8C8C8C" opacity=".3"/><path d="M367.568 277.928s-15.654-12.5-35.023-15.991c-18.018-3.266-34.572 4.279-48.761-1.126-27.027-10.473-34.122-23.649-34.122-23.649l25-72.297s15.203 20.721 34.685 23.761c15.428 2.478 30.743-3.491 48.536 0 19.144 3.716 34.572 16.892 34.572 16.892l-24.887 72.41zm-185.361-40.766s-18.693-3.153-35.923 11.374c-17.23 14.527-32.095 25.676-59.685 19.595l-53.716-37.838s33.446 8.784 62.95-14.189c14.527-11.374 31.982-17.343 38.627-12.613l47.747 33.671z" fill="#E2E2E2"/><path d="M269.369 180.18l-24.324-4.279-1.464 14.865 20.833 3.716 4.955-14.302z" fill="url(#paint8_linear_9716_116495)"/><path d="M182.207 237.162l-9.121 30.969-21.735-10.699 9.122-17.229c0-.113 13.739-4.73 21.734-3.041z" fill="url(#paint9_linear_9716_116495)"/><path d="M289.527 26.239c-.676 0-1.351-.45-1.577-1.014-.337-.9.113-1.802.901-2.252l38.964-15.878c.901-.338 1.802.112 2.253.9.337.901-.113 1.802-.901 2.253l-38.964 15.878c-.226.113-.451.113-.676.113zm9.797 7.995c-.675 0-1.351-.45-1.576-1.013-.338-.901.112-1.802.901-2.253l38.964-15.878c.9-.338 1.801.113 2.252.901.338.9-.113 1.802-.901 2.252L300 34.122c-.338 0-.563.112-.676.112zm7.207 11.036c-.675 0-1.351-.45-1.576-1.013-.338-.901.113-1.802.901-2.252l38.964-15.879c.901-.338 1.802.113 2.252.901.338.9-.113 1.802-.901 2.252l-38.964 15.879c-.225.112-.45.112-.676.112zM284.122 235.811l-2.928 9.572-5.406-1.689-9.572-11.712 1.239-4.167 10.36 12.613 1.126.338 1.802-6.081-4.955-1.464 1.126-3.716 12.5 3.828-1.126 3.717-4.166-1.239zm.675-9.122l-9.347-2.815c-3.941-1.239-5.63-4.617-4.391-8.897 1.238-4.279 4.617-6.081 8.558-4.954l9.347 2.815c3.941 1.239 5.631 4.617 4.392 8.896-1.239 4.28-4.617 6.194-8.559 4.955zm3.153-10.248l-9.346-2.815c-1.915-.563-3.717.338-4.28 2.365-.675 2.14.226 3.829 2.253 4.392l9.346 2.815c1.915.563 3.717-.338 4.28-2.365.563-2.139-.338-3.828-2.253-4.392zm-6.418 3.829c-1.239-.338-1.577-1.351-1.239-2.477.338-1.239 1.239-1.802 2.365-1.464 1.238.338 1.689 1.351 1.238 2.59-.225 1.239-1.126 1.802-2.364 1.351zm13.4-20.27l-2.928 9.572-5.405-1.689-9.572-11.712 1.239-4.166 10.36 12.612 1.126.338 1.802-6.081-4.955-1.464 1.126-3.716 12.5 3.829-1.126 3.716-4.167-1.239z" fill="#8C8C8C" opacity=".3"/><path d="M215.203 150.113h-.451l-15.09-3.041c-1.239-.225-2.027-1.464-1.802-2.703.226-1.238 1.464-2.027 2.703-1.801l15.09 3.04c1.239.225 2.027 1.464 1.802 2.703-.225 1.013-1.239 1.802-2.252 1.802z" fill="#fff"/></g><defs><linearGradient id="paint0_linear_9716_116495" x1="291.717" y1="310.604" x2="367.63" y2="187.368" gradientUnits="userSpaceOnUse"><stop offset=".312" stop-color="#C4C4C4"/><stop offset=".371" stop-color="#B7B7B7" stop-opacity=".949"/><stop offset=".546" stop-color="#969696" stop-opacity=".796"/><stop offset=".713" stop-color="#7E7E7E" stop-opacity=".65"/><stop offset=".869" stop-color="#707070" stop-opacity=".514"/><stop offset="1" stop-color="#6B6B6B" stop-opacity=".4"/></linearGradient><linearGradient id="paint1_linear_9716_116495" x1="35.403" y1="189.85" x2="126.995" y2="321.929" gradientUnits="userSpaceOnUse"><stop offset=".312" stop-color="#C4C4C4"/><stop offset=".371" stop-color="#B7B7B7" stop-opacity=".949"/><stop offset=".546" stop-color="#969696" stop-opacity=".796"/><stop offset=".713" stop-color="#7E7E7E" stop-opacity=".65"/><stop offset=".869" stop-color="#707070" stop-opacity=".514"/><stop offset="1" stop-color="#6B6B6B" stop-opacity=".4"/></linearGradient><linearGradient id="paint2_linear_9716_116495" x1="115.695" y1="75.815" x2="15.756" y2="153.545" gradientUnits="userSpaceOnUse"><stop offset=".153" stop-color="#C4C4C4"/><stop offset=".342" stop-color="#6B6B6B" stop-opacity=".4"/><stop offset=".356" stop-color="#7A7A7A" stop-opacity=".436"/><stop offset=".387" stop-color="#959595" stop-opacity=".517"/><stop offset=".421" stop-color="#AAA" stop-opacity=".606"/><stop offset=".459" stop-color="#B9B9B9" stop-opacity=".705"/><stop offset=".503" stop-color="#C1C1C1" stop-opacity=".822"/><stop offset=".571" stop-color="#C4C4C4"/></linearGradient><linearGradient id="paint3_linear_9716_116495" x1="223.339" y1="284.114" x2="223.339" y2="165.241" gradientUnits="userSpaceOnUse"><stop offset=".316" stop-color="#7F52FF"/><stop offset=".52" stop-color="#7C4FFC"/><stop offset=".687" stop-color="#7247F2"/><stop offset=".842" stop-color="#6139E0"/><stop offset=".987" stop-color="#4926C9"/><stop offset="1" stop-color="#4724C6"/></linearGradient><linearGradient id="paint4_linear_9716_116495" x1="170.228" y1="262.073" x2="170.228" y2="172.369" gradientUnits="userSpaceOnUse"><stop offset=".577" stop-color="#7F52FF"/><stop offset="1" stop-color="#4724C6"/></linearGradient><linearGradient id="paint5_linear_9716_116495" x1="23.952" y1="95.713" x2="134.479" y2="95.713" gradientUnits="userSpaceOnUse"><stop offset=".577" stop-color="#7F52FF"/><stop offset="1" stop-color="#4724C6"/></linearGradient><linearGradient id="paint6_linear_9716_116495" x1="373.987" y1="109.776" x2="286.145" y2="160.275" gradientUnits="userSpaceOnUse"><stop offset=".577" stop-color="#7F52FF"/><stop offset="1" stop-color="#4724C6"/></linearGradient><linearGradient id="paint7_linear_9716_116495" x1="196.589" y1="118.526" x2="293.862" y2="30.816" gradientUnits="userSpaceOnUse"><stop stop-color="#7F52FF"/><stop offset=".456" stop-color="#7D50FD"/><stop offset=".651" stop-color="#764BF6"/><stop offset=".796" stop-color="#6A40E9"/><stop offset=".916" stop-color="#5832D8"/><stop offset="1" stop-color="#4724C6"/></linearGradient><linearGradient id="paint8_linear_9716_116495" x1="241.169" y1="182.157" x2="273.726" y2="189.179" gradientUnits="userSpaceOnUse"><stop stop-color="#7F52FF"/><stop offset=".456" stop-color="#7D50FD"/><stop offset=".651" stop-color="#764BF6"/><stop offset=".796" stop-color="#6A40E9"/><stop offset=".916" stop-color="#5832D8"/><stop offset="1" stop-color="#4724C6"/></linearGradient><linearGradient id="paint9_linear_9716_116495" x1="170.571" y1="255.859" x2="162.547" y2="237.622" gradientUnits="userSpaceOnUse"><stop offset=".316" stop-color="#7F52FF"/><stop offset=".52" stop-color="#7C4FFC"/><stop offset=".687" stop-color="#7247F2"/><stop offset=".842" stop-color="#6139E0"/><stop offset=".987" stop-color="#4926C9"/><stop offset="1" stop-color="#4724C6"/></linearGradient><clipPath id="clip0_9716_116495"><path fill="#fff" d="M0 0h400v294.482H0z"/></clipPath></defs></svg>