<svg xmlns="http://www.w3.org/2000/svg" width="54" height="54" fill="none"><path stroke="#fff" stroke-opacity=".2" d="M.5.5h53v53H.5z"/><path d="M53 1H1v52h52V1z" fill="#000"/><path d="M24.962 43.212H5.488v3.263h19.474v-3.263zM5.282 14.663l1.53-1.428c.407.51.815.816 1.325.816.611 0 .917-.408.917-1.224V7.423H11.4v5.404c0 1.02-.305 1.836-.815 2.345-.51.51-1.326.816-2.345.816-1.53.102-2.346-.51-2.957-1.325zM11.91 7.525h6.83v1.938h-4.486v1.325h4.079v1.835h-4.079v1.326h4.589v2.04H12.01l-.102-8.464zM21.799 9.565H19.25v-2.04h7.443v2.04h-2.549v6.423H21.8V9.565zM5.485 17.925H9.87c1.02 0 1.835.306 2.345.714.306.306.51.816.51 1.427 0 1.02-.51 1.53-1.326 1.938 1.02.305 1.632.917 1.632 2.039 0 1.427-1.224 2.345-3.161 2.345H5.485v-8.463zm4.894 2.651c0-.51-.407-.714-1.02-.714H7.83v1.53h1.428c.714-.102 1.122-.306 1.122-.816zm-.815 2.447H7.729v1.53h1.835c.714 0 1.121-.306 1.121-.816s-.407-.714-1.121-.714zM13.439 17.925h3.976c1.326 0 2.142.306 2.753.918.51.51.714 1.121.714 1.937 0 1.325-.714 2.141-1.733 2.65l2.039 2.958h-2.651l-1.733-2.55h-1.02v2.55H13.44v-8.463zm3.875 4.078c.815 0 1.223-.407 1.223-1.02 0-.713-.51-1.019-1.223-1.019h-1.53v2.04h1.53z" fill="#fff"/><path d="M23.635 17.925h2.243l3.569 8.565h-2.55l-.611-1.53h-3.263l-.612 1.53h-2.447l3.671-8.565zm2.04 5.098l-.919-2.345-.917 2.345h1.835zM29.752 17.925h2.345v8.463h-2.345v-8.463zM32.71 17.925h2.142l3.466 4.486v-4.486h2.345v8.463h-2.039L35.056 21.8v4.69H32.71v-8.565zM40.867 25.164l1.326-1.53c.815.715 1.733 1.02 2.753 1.02.611 0 1.02-.203 1.02-.611s-.307-.51-1.428-.816c-1.835-.408-3.161-.918-3.161-2.651 0-1.53 1.223-2.753 3.263-2.753 1.427 0 2.549.408 3.466 1.122l-1.223 1.631c-.816-.51-1.632-.816-2.345-.816-.612 0-.816.204-.816.51 0 .408.306.51 1.428.816 1.937.408 3.16 1.02 3.16 2.65 0 1.734-1.325 2.754-3.466 2.754-1.53.102-2.957-.408-3.977-1.326z" fill="#fff"/></svg>